# xmcd CD database file
#
# Track frame offsets:
#	150
#	8689
#	16726
#	26846
#	32926
#	38558
#	46593
#	52873
#	65384
#	71465
#	77396
#	85730
#
# Disc length: 1264 seconds
#
# Revision: 0
# Processed by: cddbd v1.5.2PL0 Copyright (c) Steve Scherf et al.
# Submitted via: CDex 1.51
#
DISCID=7b04ee0c
DTITLE=Hal Leonard - The Best of Charlie Parker
DYEAR=2003
DGENRE=Jazz
TTITLE0=Billie's Bounce
TTITLE1=Anthropology
TTITLE2=Ko Ko
TTITLE3=Moose The Mooche
TTITLE4=Ornithology
TTITLE5=Donna Lee
TTITLE6=Scrapple From The Apple
TTITLE7=Parker's Mood
TTITLE8=Bloomdido
TTITLE9=Kim
TTITLE10=Now's The Time
TTITLE11=Confirmation
EXTD=YEAR: 2003
EXTT0=
EXTT1=
EXTT2=
EXTT3=
EXTT4=
EXTT5=
EXTT6=
EXTT7=
EXTT8=
EXTT9=
EXTT10=
EXTT11=
PLAYORDER=
